SplineFontDB: 3.0
FontName: ORI-AsikaItalic
FullName: ORI Asika Italic
FamilyName: ORI Asika
Weight: Book
Copyright: Copyright (c) 2009-2015, NLCI (http://www.nlci.in/fonts/)
Version: 1.0 Thu Sep 12 14:51
ItalicAngle: 0
UnderlinePosition: -269
UnderlineWidth: 19
Ascent: 800
Descent: 200
LayerCount: 2
Layer: 0 1 "Back"  1
Layer: 1 1 "Fore"  0
XUID: [1021 383 875109826 1287619]
FSType: 0
OS2Version: 1
OS2_WeightWidthSlopeOnly: 0
OS2_UseTypoMetrics: 1
CreationTime: 1257818334
ModificationTime: 1257818334
PfmFamily: 17
TTFWeight: 400
TTFWidth: 5
LineGap: 90
VLineGap: 0
Panose: 2 0 5 3 0 0 0 0 0 0
OS2TypoAscent: 181
OS2TypoAOffset: 1
OS2TypoDescent: -231
OS2TypoDOffset: 1
OS2TypoLinegap: 90
OS2WinAscent: -302
OS2WinAOffset: 1
OS2WinDescent: 66
OS2WinDOffset: 1
HheadAscent: -392
HheadAOffset: 1
HheadDescent: -66
HheadDOffset: 1
OS2SubXSize: 650
OS2SubYSize: 700
OS2SubXOff: 0
OS2SubYOff: 140
OS2SupXSize: 650
OS2SupYSize: 700
OS2SupXOff: 0
OS2SupYOff: 480
OS2StrikeYSize: 49
OS2StrikeYPos: 258
OS2Vendor: 'PfEd'
OS2CodePages: 80000001.00000000
OS2UnicodeRanges: 800000af.10000048.00000000.00000000
DEI: 91125
ShortTable: maxp 16
  1
  0
  303
  67
  5
  18
  4
  2
  0
  1
  1
  0
  64
  439
  2
  2
EndShort
LangName: 1033 "" "" "" "FontForge : ORI Asika Italic : 23-7-2009" 
GaspTable: 1 65535 2
Encoding: UnicodeBmp
UnicodeInterp: none
NameList: Adobe Glyph List
DisplaySize: -24
AntiAlias: 1
FitToEm: 1
Lookup: 4 0 0 "'nukt' Nukta Forms in Oriya lookup 0"  {"'nukt' Nukta Forms in Oriya lookup 0 subtable"  } ['nukt' ('orya' <'dflt' > ) ]
Lookup: 4 0 0 "'akhn' Akhand in Oriya lookup 1"  {"'akhn' Akhand in Oriya lookup 1 subtable"  } ['akhn' ('orya' <'dflt' > ) ]
Lookup: 4 0 0 "'rphf' Reph Form in Oriya lookup 2"  {"'rphf' Reph Form in Oriya lookup 2 subtable"  } ['rphf' ('orya' <'dflt' > ) ]
Lookup: 4 0 0 "'blwf' Below Base Forms in Oriya lookup 3"  {"'blwf' Below Base Forms in Oriya lookup 3 subtable"  } ['blwf' ('orya' <'dflt' > ) ]

StartChar: exclam
Encoding: 65540 -1 4
Width: 379
Flags: W
LayerCount: 2
Fore
SplineSet
370 722 m 1,0,-1
 199 169 l 1,1,-1
 139 169 l 1,2,-1
 264 722 l 1,3,-1
 370 722 l 1,0,-1
196 95 m 1,4,-1
 170 0 l 1,5,-1
 70 0 l 1,6,-1
 96 95 l 1,7,-1
 196 95 l 1,4,-1
EndSplineSet
EndChar

StartChar: quotedbl
Encoding: 34 34 5
Width: 465
Flags: W
LayerCount: 2
Fore
SplineSet
527 722 m 1,0,-1
 427 434 l 1,1,-1
 367 434 l 1,2,-1
 421 722 l 1,3,-1
 527 722 l 1,0,-1
321 722 m 1,4,-1
 221 434 l 1,5,-1
 161 434 l 1,6,-1
 215 722 l 1,7,-1
 321 722 l 1,4,-1
EndSplineSet
EndChar

StartChar: numbersign
Encoding: 35 35 6
Width: 760
Flags: W
LayerCount: 2
Fore
SplineSet
734 513 m 1,0,-1
 713 444 l 1,1,-1
 571 444 l 1,2,-1
 529 308 l 1,3,-1
 670 308 l 1,4,-1
 649 239 l 1,5,-1
 508 239 l 1,6,-1
 437 0 l 1,7,-1
 363 0 l 1,8,-1
 434 239 l 1,9,-1
 304 239 l 1,10,-1
 232 0 l 1,11,-1
 158 0 l 1,12,-1
 230 239 l 1,13,-1
 88 239 l 1,14,-1
 109 308 l 1,15,-1
 251 308 l 1,16,-1
 293 444 l 1,17,-1
 152 444 l 1,18,-1
 173 513 l 1,19,-1
 314 513 l 1,20,-1
 378 722 l 1,21,-1
 453 722 l 1,22,-1
 388 513 l 1,23,-1
 519 513 l 1,24,-1
 583 722 l 1,25,-1
 657 722 l 1,26,-1
 593 513 l 1,27,-1
 734 513 l 1,0,-1
498 444 m 1,28,-1
 367 444 l 1,29,-1
 324 308 l 1,30,-1
 456 308 l 1,31,-1
 498 444 l 1,28,-1
EndSplineSet
EndChar

StartChar: dollar
Encoding: 36 36 7
Width: 558
Flags: W
LayerCount: 2
Fore
SplineSet
584 587 m 0,0,1
 584 558 584 558 575 524 c 1,2,-1
 474 524 l 1,3,4
 483 557 483 557 483 579 c 0,5,6
 483 627 483 627 414 627 c 1,7,-1
 356 408 l 1,8,9
 443 388 443 388 473 370 c 1,10,11
 526 336 526 336 526 264 c 0,12,13
 526 143 526 143 443 66 c 0,14,15
 365 -7 365 -7 243 -13 c 1,16,-1
 218 -104 l 1,17,-1
 167 -104 l 1,18,-1
 192 -14 l 1,19,20
 19 -14 19 -14 19 131 c 0,21,22
 19 168 19 168 30 209 c 1,23,-1
 131 209 l 1,24,25
 123 179 123 179 123 152 c 0,26,27
 123 73 123 73 215 73 c 1,28,-1
 282 322 l 1,29,30
 197 345 197 345 169 361 c 0,31,32
 114 394 114 394 114 458 c 0,33,34
 114 569 114 569 196 643 c 0,35,36
 275 714 275 714 387 714 c 1,37,-1
 408 795 l 1,38,-1
 459 795 l 1,39,-1
 438 715 l 1,40,41
 584 715 584 715 584 587 c 0,0,1
363 627 m 1,42,43
 298 627 298 627 269 603.5 c 128,-1,44
 240 580 240 580 224 519 c 0,45,46
 218 496 218 496 218 481 c 0,47,48
 218 451 218 451 250 437 c 1,49,50
 279 428 279 428 308 420 c 1,51,-1
 363 627 l 1,42,43
420 242 m 0,52,53
 420 279 420 279 392 296 c 0,54,55
 380 304 380 304 331 317 c 1,56,-1
 266 74 l 1,57,58
 341 75 341 75 380.5 120 c 128,-1,59
 420 165 420 165 420 242 c 0,52,53
EndSplineSet
EndChar

StartChar: percent
Encoding: 37 37 8
Width: 942
Flags: W
LayerCount: 2
Fore
SplineSet
902 188 m 256,0,1
 902 102 902 102 855 49 c 128,-1,2
 808 -4 808 -4 723 -4 c 0,3,4
 639 -4 639 -4 592 49 c 128,-1,5
 545 102 545 102 545 188 c 256,6,7
 545 274 545 274 592 327 c 128,-1,8
 639 380 639 380 723 380 c 0,9,10
 808 380 808 380 855 327 c 128,-1,11
 902 274 902 274 902 188 c 256,0,1
740 736 m 1,12,-1
 314 -14 l 1,13,-1
 245 -14 l 1,14,-1
 671 736 l 1,15,-1
 740 736 l 1,12,-1
431 534 m 256,16,17
 431 448 431 448 384 395 c 128,-1,18
 337 342 337 342 252 342 c 0,19,20
 168 342 168 342 121 395 c 128,-1,21
 74 448 74 448 74 534 c 256,22,23
 74 620 74 620 121 673 c 128,-1,24
 168 726 168 726 252 726 c 0,25,26
 337 726 337 726 384 673 c 128,-1,27
 431 620 431 620 431 534 c 256,16,17
816 188 m 0,28,29
 816 315 816 315 723 315 c 256,30,31
 630 315 630 315 630 188 c 0,32,33
 630 62 630 62 723 62 c 256,34,35
 816 62 816 62 816 188 c 0,28,29
345 534 m 0,36,37
 345 661 345 661 252 661 c 256,38,39
 159 661 159 661 159 534 c 0,40,41
 159 408 159 408 252 408 c 256,42,43
 345 408 345 408 345 534 c 0,36,37
EndSplineSet
EndChar

StartChar: ampersand
Encoding: 38 38 9
Width: 781
Flags: W
LayerCount: 2
Fore
SplineSet
699 422 m 1,0,1
 654 253 654 253 571 146 c 1,2,3
 608 85 608 85 686 0 c 1,4,-1
 552 0 l 1,5,6
 523 26 523 26 493 71 c 1,7,8
 441 34 441 34 370.5 10.5 c 128,-1,9
 300 -13 300 -13 237 -13 c 0,10,11
 156 -13 156 -13 102 27 c 0,12,13
 43 72 43 72 43 150 c 0,14,15
 43 328 43 328 266 421 c 1,16,17
 224 494 224 494 224 540 c 0,18,19
 224 622 224 622 298 681 c 0,20,21
 368 736 368 736 452 736 c 0,22,23
 511 736 511 736 551 714 c 0,24,25
 601 686 601 686 601 631 c 0,26,27
 601 556 601 556 528 494 c 0,28,29
 484 457 484 457 390 411 c 1,30,31
 419 356 419 356 525 209 c 1,32,33
 559 269 559 269 572 312 c 0,34,35
 576 328 576 328 593 422 c 1,36,-1
 699 422 l 1,0,1
514 605 m 0,37,38
 514 632 514 632 492.5 646.5 c 128,-1,39
 471 661 471 661 443 661 c 0,40,41
 393 661 393 661 359.5 633 c 128,-1,42
 326 605 326 605 326 556 c 0,43,44
 326 518 326 518 356 464 c 1,45,46
 514 526 514 526 514 605 c 0,37,38
458 132 m 1,47,48
 376 224 376 224 298 364 c 1,49,50
 248 353 248 353 198 295.5 c 128,-1,51
 148 238 148 238 148 188 c 0,52,53
 148 140 148 140 181.5 106 c 128,-1,54
 215 72 215 72 263 72 c 0,55,56
 374 72 374 72 458 132 c 1,47,48
EndSplineSet
EndChar

StartChar: quotesingle
Encoding: 65541 -1 10
Width: 400
Flags: W
LayerCount: 2
Fore
SplineSet
391 722 m 1,0,-1
 291 434 l 1,1,-1
 231 434 l 1,2,-1
 285 722 l 1,3,-1
 391 722 l 1,0,-1
EndSplineSet
EndChar

StartChar: parenleft
Encoding: 65542 -1 11
Width: 365
Flags: W
LayerCount: 2
Fore
SplineSet
406 736 m 1,0,1
 288 547 288 547 232 381 c 0,2,3
 168 192 168 192 168 -9 c 0,4,5
 168 -74 168 -74 173 -132 c 1,6,-1
 109 -132 l 1,7,8
 81 -32 81 -32 81 73 c 0,9,10
 81 417 81 417 342 736 c 1,11,-1
 406 736 l 1,0,1
EndSplineSet
EndChar

StartChar: parenright
Encoding: 65543 -1 12
Width: 366
Flags: W
LayerCount: 2
Fore
SplineSet
310 531 m 0,0,1
 310 186 310 186 50 -132 c 1,2,-1
 -14 -132 l 1,3,4
 104 57 104 57 160 223 c 0,5,6
 224 412 224 412 224 613 c 0,7,8
 224 679 224 679 219 736 c 1,9,-1
 283 736 l 1,10,11
 310 641 310 641 310 531 c 0,0,1
EndSplineSet
EndChar

StartChar: asterisk
Encoding: 42 42 13
Width: 694
Flags: W
LayerCount: 2
Fore
SplineSet
628 488 m 1,0,-1
 463 509 l 1,1,-1
 564 375 l 1,2,-1
 492 335 l 1,3,-1
 428 482 l 1,4,-1
 364 335 l 1,5,-1
 291 375 l 1,6,-1
 392 509 l 1,7,-1
 227 488 l 1,8,-1
 227 570 l 1,9,-1
 392 549 l 1,10,-1
 291 683 l 1,11,-1
 364 722 l 1,12,-1
 428 576 l 1,13,-1
 492 722 l 1,14,-1
 564 683 l 1,15,-1
 463 549 l 1,16,-1
 628 570 l 1,17,-1
 628 488 l 1,0,-1
EndSplineSet
EndChar

StartChar: plus
Encoding: 43 43 14
Width: 1060
Flags: W
LayerCount: 2
Fore
SplineSet
830 269 m 1,0,-1
 561 269 l 1,1,-1
 561 0 l 1,2,-1
 499 0 l 1,3,-1
 499 269 l 1,4,-1
 230 269 l 1,5,-1
 230 331 l 1,6,-1
 499 331 l 1,7,-1
 499 600 l 1,8,-1
 561 600 l 1,9,-1
 561 331 l 1,10,-1
 830 331 l 1,11,-1
 830 269 l 1,0,-1
EndSplineSet
EndChar

StartChar: comma
Encoding: 65544 -1 15
Width: 280
Flags: W
LayerCount: 2
Fore
SplineSet
183 123 m 1,0,-1
 6 -127 l 1,1,-1
 -64 -127 l 1,2,-1
 63 123 l 1,3,-1
 183 123 l 1,0,-1
EndSplineSet
EndChar

StartChar: hyphen
Encoding: 65545 -1 16
Width: 327
Flags: W
LayerCount: 2
Fore
SplineSet
290 285 m 1,0,-1
 268 203 l 1,1,-1
 28 203 l 1,2,-1
 50 285 l 1,3,-1
 290 285 l 1,0,-1
EndSplineSet
EndChar

StartChar: period
Encoding: 65546 -1 17
Width: 296
Flags: W
LayerCount: 2
Fore
SplineSet
173 123 m 1,0,-1
 140 0 l 1,1,-1
 32 0 l 1,2,-1
 65 123 l 1,3,-1
 173 123 l 1,0,-1
EndSplineSet
EndChar

StartChar: slash
Encoding: 65547 -1 18
Width: 409
Flags: W
LayerCount: 2
Fore
SplineSet
357 736 m 1,0,-1
 121 -52 l 1,1,-1
 52 -52 l 1,2,-1
 288 736 l 1,3,-1
 357 736 l 1,0,-1
EndSplineSet
EndChar

StartChar: zero
Encoding: 65548 -1 19
Width: 564
Flags: W
LayerCount: 2
Fore
SplineSet
578 569 m 0,0,1
 578 495 578 495 546 375 c 0,2,3
 501 208 501 208 440 118 c 0,4,5
 351 -14 351 -14 213 -14 c 0,6,7
 52 -14 52 -14 52 164 c 0,8,9
 52 244 52 244 87 375 c 0,10,11
 130 537 130 537 190 619 c 0,12,13
 275 736 275 736 414 736 c 0,14,15
 578 736 578 736 578 569 c 0,0,1
480 551 m 0,16,17
 480 652 480 652 391 652 c 256,18,19
 302 652 302 652 247 553 c 0,20,21
 217 499 217 499 184 375 c 0,22,23
 149 245 149 245 149 179 c 0,24,25
 149 70 149 70 235 70 c 256,26,27
 321 70 321 70 382 185 c 0,28,29
 415 248 415 248 449 375 c 0,30,31
 480 491 480 491 480 551 c 0,16,17
EndSplineSet
EndChar

StartChar: one
Encoding: 65549 -1 20
Width: 596
Flags: W
LayerCount: 2
Fore
SplineSet
532 722 m 1,0,-1
 338 0 l 1,1,-1
 245 0 l 1,2,-1
 407 602 l 1,3,4
 314 534 314 534 228 519 c 1,5,-1
 251 602 l 1,6,7
 358 634 358 634 432 722 c 1,8,-1
 532 722 l 1,0,-1
EndSplineSet
EndChar

StartChar: two
Encoding: 65550 -1 21
Width: 555
Flags: W
LayerCount: 2
Fore
SplineSet
578 590 m 0,0,1
 578 449 578 449 408 290 c 0,2,3
 318 207 318 207 122 78 c 1,4,-1
 447 78 l 1,5,-1
 426 0 l 1,6,-1
 -9 0 l 1,7,-1
 16 93 l 1,8,9
 213 218 213 218 301 295 c 0,10,11
 476 450 476 450 476 584 c 0,12,13
 476 653 476 653 391 653 c 0,14,15
 292 653 292 653 244 526 c 1,16,-1
 142 526 l 1,17,18
 214 736 214 736 414 736 c 0,19,20
 486 736 486 736 531 700 c 1,21,22
 578 661 578 661 578 590 c 0,0,1
EndSplineSet
EndChar

StartChar: three
Encoding: 65551 -1 22
Width: 559
Flags: W
LayerCount: 2
Fore
SplineSet
587 593 m 0,0,1
 587 529 587 529 551.5 469.5 c 128,-1,2
 516 410 516 410 461 379 c 1,3,4
 489 356 489 356 500.5 336 c 128,-1,5
 512 316 512 316 512 281 c 0,6,7
 512 155 512 155 422.5 70.5 c 128,-1,8
 333 -14 333 -14 206 -14 c 0,9,10
 126 -14 126 -14 78 20 c 0,11,12
 23 59 23 59 23 135 c 0,13,14
 23 164 23 164 30 190 c 1,15,-1
 136 190 l 1,16,17
 133 173 133 173 133 154 c 0,18,19
 133 63 133 63 229 63 c 0,20,21
 305 63 305 63 357 122 c 0,22,23
 407 178 407 178 407 254 c 0,24,25
 407 336 407 336 289 336 c 1,26,-1
 311 416 l 1,27,28
 387 416 387 416 425.5 447.5 c 128,-1,29
 464 479 464 479 483 553 c 0,30,31
 487 568 487 568 487 583 c 0,32,33
 487 622 487 622 454 642 c 0,34,35
 427 659 427 659 386 659 c 0,36,37
 293 659 293 659 238 534 c 1,38,-1
 137 534 l 1,39,40
 216 736 216 736 405 736 c 0,41,42
 480 736 480 736 530 703 c 0,43,44
 587 665 587 665 587 593 c 0,0,1
EndSplineSet
EndChar

StartChar: four
Encoding: 65552 -1 23
Width: 560
Flags: W
LayerCount: 2
Fore
SplineSet
565 722 m 1,0,-1
 441 259 l 1,1,-1
 530 259 l 1,2,-1
 507 176 l 1,3,-1
 418 176 l 1,4,-1
 371 0 l 1,5,-1
 278 0 l 1,6,-1
 325 176 l 1,7,-1
 8 176 l 1,8,-1
 37 281 l 1,9,-1
 455 722 l 1,10,-1
 565 722 l 1,0,-1
442 612 m 1,11,-1
 111 259 l 1,12,-1
 348 259 l 1,13,-1
 442 612 l 1,11,-1
EndSplineSet
EndChar

StartChar: five
Encoding: 65553 -1 24
Width: 559
Flags: W
LayerCount: 2
Fore
SplineSet
587 722 m 1,0,-1
 565 639 l 1,1,-1
 280 639 l 1,2,-1
 207 412 l 1,3,4
 279 462 279 462 280 463 c 0,5,6
 313 480 313 480 371 480 c 0,7,8
 441 480 441 480 479 435 c 0,9,10
 514 394 514 394 514 322 c 0,11,12
 514 208 514 208 425 100 c 0,13,14
 332 -13 332 -13 220 -13 c 0,15,16
 140 -13 140 -13 89 15 c 0,17,18
 26 50 26 50 26 124 c 0,19,20
 26 150 26 150 33 176 c 1,21,-1
 138 176 l 1,22,23
 134 161 134 161 134 142 c 0,24,25
 134 67 134 67 230 67 c 0,26,27
 310 67 310 67 366 155 c 1,28,29
 414 233 414 233 414 318 c 0,30,31
 414 406 414 406 329 406 c 0,32,33
 243 406 243 406 168 302 c 1,34,-1
 78 302 l 1,35,-1
 204 722 l 1,36,-1
 587 722 l 1,0,-1
EndSplineSet
EndChar

StartChar: six
Encoding: 65554 -1 25
Width: 561
Flags: W
LayerCount: 2
Fore
SplineSet
578 601 m 0,0,1
 578 579 578 579 574 550 c 1,2,-1
 478 550 l 1,3,4
 482 570 482 570 482 588 c 0,5,6
 482 659 482 659 400 659 c 0,7,8
 315 659 315 659 247 546 c 0,9,10
 197 461 197 461 174 354 c 1,11,12
 226 405 226 405 253 421 c 0,13,14
 295 446 295 446 353 446 c 0,15,16
 517 446 517 446 517 302 c 0,17,18
 517 173 517 173 433 81 c 0,19,20
 347 -14 347 -14 219 -14 c 0,21,22
 130 -14 130 -14 87 13 c 0,23,24
 34 47 34 47 34 130 c 0,25,26
 34 198 34 198 73 343 c 0,27,28
 179 736 179 736 423 736 c 0,29,30
 578 736 578 736 578 601 c 0,0,1
413 285 m 0,31,32
 413 369 413 369 317 369 c 0,33,34
 234 369 234 369 184 299 c 0,35,36
 139 236 139 236 139 148 c 0,37,38
 139 63 139 63 235 63 c 0,39,40
 318 63 318 63 368 134 c 0,41,42
 413 197 413 197 413 285 c 0,31,32
EndSplineSet
EndChar

StartChar: seven
Encoding: 65555 -1 26
Width: 562
Flags: W
LayerCount: 2
Fore
SplineSet
639 722 m 1,0,1
 626 673 626 673 612 622 c 1,2,-1
 210 0 l 1,3,-1
 100 0 l 1,4,-1
 527 642 l 1,5,-1
 172 642 l 1,6,-1
 194 722 l 1,7,-1
 639 722 l 1,0,1
EndSplineSet
EndChar

StartChar: eight
Encoding: 65556 -1 27
Width: 558
Flags: W
LayerCount: 2
Fore
SplineSet
584 604 m 0,0,1
 584 535 584 535 531 469 c 0,2,3
 481 407 481 407 413 383 c 1,4,5
 455 366 455 366 481 326 c 128,-1,6
 507 286 507 286 507 240 c 0,7,8
 507 127 507 127 413 54 c 0,9,10
 326 -13 326 -13 210 -13 c 0,11,12
 132 -13 132 -13 80 19 c 0,13,14
 17 58 17 58 17 131 c 0,15,16
 17 212 17 212 78 286 c 1,17,18
 135 357 135 357 215 383 c 1,19,20
 181 398 181 398 160 435 c 0,21,22
 140 469 140 469 140 508 c 0,23,24
 140 609 140 609 227 675 c 0,25,26
 307 736 307 736 411 736 c 0,27,28
 480 736 480 736 528 705 c 0,29,30
 584 670 584 670 584 604 c 0,0,1
487 578 m 0,31,32
 487 659 487 659 390 659 c 0,33,34
 325 659 325 659 277 615 c 128,-1,35
 229 571 229 571 229 506 c 0,36,37
 229 465 229 465 257 442.5 c 128,-1,38
 285 420 285 420 326 420 c 0,39,40
 391 420 391 420 439 467 c 128,-1,41
 487 514 487 514 487 578 c 0,31,32
414 249 m 0,42,43
 414 343 414 343 305 343 c 0,44,45
 227 343 227 343 172.5 288.5 c 128,-1,46
 118 234 118 234 118 156 c 0,47,48
 118 64 118 64 230 64 c 0,49,50
 308 64 308 64 361 117 c 128,-1,51
 414 170 414 170 414 249 c 0,42,43
EndSplineSet
EndChar

StartChar: nine
Encoding: 65557 -1 28
Width: 562
Flags: W
LayerCount: 2
Fore
SplineSet
589 592 m 0,0,1
 589 524 589 524 550 379 c 0,2,3
 444 -14 444 -14 201 -14 c 0,4,5
 46 -14 46 -14 46 121 c 0,6,7
 46 151 46 151 49 172 c 1,8,-1
 145 172 l 1,9,10
 141 152 141 152 141 134 c 0,11,12
 141 63 141 63 223 63 c 0,13,14
 308 63 308 63 376 176 c 0,15,16
 426 261 426 261 449 368 c 1,17,18
 397 317 397 317 370 301 c 0,19,20
 328 276 328 276 270 276 c 0,21,22
 106 276 106 276 106 420 c 0,23,24
 106 549 106 549 191.5 642.5 c 128,-1,25
 277 736 277 736 405 736 c 0,26,27
 494 736 494 736 536 709 c 0,28,29
 589 675 589 675 589 592 c 0,0,1
485 574 m 0,30,31
 485 659 485 659 388 659 c 0,32,33
 305 659 305 659 255 588 c 0,34,35
 210 525 210 525 210 437 c 0,36,37
 210 353 210 353 306 353 c 0,38,39
 390 353 390 353 440 423 c 0,40,41
 485 486 485 486 485 574 c 0,30,31
EndSplineSet
EndChar

StartChar: colon
Encoding: 65558 -1 29
Width: 280
Flags: W
LayerCount: 2
Fore
SplineSet
274 500 m 1,0,-1
 241 377 l 1,1,-1
 133 377 l 1,2,-1
 166 500 l 1,3,-1
 274 500 l 1,0,-1
173 123 m 1,4,-1
 140 0 l 1,5,-1
 32 0 l 1,6,-1
 65 123 l 1,7,-1
 173 123 l 1,4,-1
EndSplineSet
EndChar

StartChar: semicolon
Encoding: 65559 -1 30
Width: 268
Flags: W
LayerCount: 2
Fore
SplineSet
262 500 m 1,0,-1
 229 377 l 1,1,-1
 121 377 l 1,2,-1
 154 500 l 1,3,-1
 262 500 l 1,0,-1
183 123 m 1,4,-1
 6 -127 l 1,5,-1
 -64 -127 l 1,6,-1
 63 123 l 1,7,-1
 183 123 l 1,4,-1
EndSplineSet
EndChar

StartChar: less
Encoding: 60 60 31
Width: 1060
Flags: W
LayerCount: 2
Fore
SplineSet
830 39 m 1,0,-1
 230 269 l 1,1,-1
 230 331 l 1,2,-1
 830 561 l 1,3,-1
 830 499 l 1,4,-1
 294 300 l 1,5,-1
 830 101 l 1,6,-1
 830 39 l 1,0,-1
EndSplineSet
EndChar

StartChar: equal
Encoding: 61 61 32
Width: 1060
Flags: W
LayerCount: 2
Fore
SplineSet
830 360 m 1,0,-1
 230 360 l 1,1,-1
 230 422 l 1,2,-1
 830 422 l 1,3,-1
 830 360 l 1,0,-1
830 178 m 1,4,-1
 230 178 l 1,5,-1
 230 240 l 1,6,-1
 830 240 l 1,7,-1
 830 178 l 1,4,-1
EndSplineSet
EndChar

StartChar: greater
Encoding: 62 62 33
Width: 1060
Flags: W
LayerCount: 2
Fore
SplineSet
830 269 m 1,0,-1
 230 39 l 1,1,-1
 230 101 l 1,2,-1
 766 300 l 1,3,-1
 230 499 l 1,4,-1
 230 561 l 1,5,-1
 830 331 l 1,6,-1
 830 269 l 1,0,-1
EndSplineSet
EndChar

StartChar: question
Encoding: 65560 -1 34
Width: 527
Flags: W
LayerCount: 2
Fore
SplineSet
559 597 m 0,0,1
 559 522 559 522 491 456 c 0,2,3
 462 428 462 428 361 360 c 0,4,5
 287 309 287 309 278 277 c 2,6,-1
 248 165 l 1,7,-1
 168 165 l 1,8,-1
 202 293 l 2,9,10
 210 324 210 324 278 372 c 0,11,12
 376 441 376 441 396 459 c 0,13,14
 457 516 457 516 457 576 c 0,15,16
 457 642 457 642 352 642 c 0,17,18
 294 642 294 642 258.5 625 c 128,-1,19
 223 608 223 608 186 563 c 1,20,-1
 131 605 l 1,21,22
 234 736 234 736 376 736 c 0,23,24
 448 736 448 736 499 703 c 0,25,26
 559 665 559 665 559 597 c 0,0,1
239 95 m 1,27,-1
 213 0 l 1,28,-1
 113 0 l 1,29,-1
 139 95 l 1,30,-1
 239 95 l 1,27,-1
EndSplineSet
EndChar

StartChar: at
Encoding: 64 64 35
Width: 1010
Flags: W
LayerCount: 2
Fore
SplineSet
976 433 m 0,0,1
 976 298 976 298 897 169 c 1,2,3
 808 21 808 21 681 21 c 0,4,5
 591 21 591 21 573 116 c 1,6,7
 500 26 500 26 399 26 c 0,8,9
 337 26 337 26 303 73 c 0,10,11
 273 115 273 115 273 179 c 0,12,13
 273 288 273 288 342 385 c 0,14,15
 419 492 419 492 524 492 c 0,16,17
 580 492 580 492 600 480 c 0,18,19
 611 473 611 473 647 426 c 1,20,-1
 663 485 l 1,21,-1
 753 485 l 1,22,-1
 663 149 l 2,23,24
 662 144 662 144 662 140 c 0,25,26
 662 107 662 107 716 107 c 0,27,28
 786 107 786 107 836 233 c 0,29,30
 877 336 877 336 877 420 c 0,31,32
 877 626 877 626 603 626 c 0,33,34
 405 626 405 626 277.5 488 c 128,-1,35
 150 350 150 350 150 150 c 0,36,37
 150 -88 150 -88 423 -88 c 0,38,39
 523 -88 523 -88 599 -69 c 1,40,-1
 577 -152 l 1,41,42
 495 -178 495 -178 408 -178 c 0,43,44
 247 -178 247 -178 154 -111 c 0,45,46
 49 -34 49 -34 49 122 c 0,47,48
 49 360 49 360 214 536 c 0,49,50
 382 716 382 716 619 716 c 0,51,52
 775 716 775 716 868 654 c 0,53,54
 976 581 976 581 976 433 c 0,0,1
610 332 m 0,55,56
 610 422 610 422 532 422 c 0,57,58
 457 422 457 422 409 337 c 0,59,60
 368 264 368 264 368 183 c 0,61,62
 368 95 368 95 445 95 c 0,63,64
 514 95 514 95 565 182 c 0,65,66
 610 258 610 258 610 332 c 0,55,56
EndSplineSet
EndChar

StartChar: A
Encoding: 65 65 36
Width: 754
Flags: W
LayerCount: 2
Fore
SplineSet
657 0 m 1,0,-1
 551 0 l 1,1,-1
 525 193 l 1,2,-1
 171 193 l 1,3,-1
 40 0 l 1,4,-1
 -63 0 l 1,5,-1
 434 722 l 1,6,-1
 544 722 l 1,7,-1
 657 0 l 1,0,-1
506 278 m 1,8,-1
 457 611 l 1,9,-1
 233 278 l 1,10,-1
 506 278 l 1,8,-1
EndSplineSet
EndChar

StartChar: B
Encoding: 66 66 37
Width: 674
Flags: W
LayerCount: 2
Fore
SplineSet
671 593 m 0,0,1
 671 522 671 522 620 463 c 128,-1,2
 569 404 569 404 498 385 c 1,3,4
 544 373 544 373 574.5 335.5 c 128,-1,5
 605 298 605 298 605 251 c 0,6,7
 605 151 605 151 515 74 c 0,8,9
 429 0 429 0 327 0 c 2,10,-1
 11 0 l 1,11,-1
 205 722 l 1,12,-1
 495 722 l 2,13,14
 567 722 567 722 614 694 c 0,15,16
 671 660 671 660 671 593 c 0,0,1
572 561 m 0,17,18
 572 635 572 635 441 635 c 2,19,-1
 282 635 l 1,20,-1
 225 420 l 1,21,-1
 382 420 l 2,22,23
 459 420 459 420 510 451 c 0,24,25
 572 488 572 488 572 561 c 0,17,18
509 245 m 0,26,27
 509 337 509 337 355 337 c 2,28,-1
 203 337 l 1,29,-1
 136 87 l 1,30,-1
 293 87 l 2,31,32
 373 87 373 87 435 125 c 0,33,34
 509 170 509 170 509 245 c 0,26,27
EndSplineSet
EndChar

StartChar: C
Encoding: 67 67 38
Width: 687
Flags: W
LayerCount: 2
Fore
SplineSet
705 587 m 0,0,1
 705 559 705 559 697 529 c 1,2,-1
 596 529 l 1,3,4
 603 555 603 555 603 574 c 0,5,6
 603 657 603 657 475 657 c 0,7,8
 278 657 278 657 197 356 c 0,9,10
 173 267 173 267 173 208 c 0,11,12
 173 67 173 67 313 67 c 0,13,14
 476 67 476 67 510 193 c 1,15,-1
 611 193 l 1,16,17
 584 94 584 94 488 37 c 0,18,19
 402 -14 402 -14 293 -14 c 0,20,21
 72 -14 72 -14 72 202 c 0,22,23
 72 400 72 400 183 559 c 0,24,25
 307 736 307 736 496 736 c 0,26,27
 584 736 584 736 638 706 c 0,28,29
 705 668 705 668 705 587 c 0,0,1
EndSplineSet
EndChar

StartChar: D
Encoding: 68 68 39
Width: 723
Flags: W
LayerCount: 2
Fore
SplineSet
707 490 m 0,0,1
 707 434 707 434 688 362 c 0,2,3
 644 194 644 194 527 99 c 1,4,5
 407 0 407 0 236 0 c 2,6,-1
 11 0 l 1,7,-1
 205 722 l 1,8,-1
 430 722 l 2,9,10
 707 722 707 722 707 490 c 0,0,1
604 461 m 0,11,12
 604 549 604 549 549 594 c 0,13,14
 498 635 498 635 408 635 c 2,15,-1
 282 635 l 1,16,-1
 136 87 l 1,17,-1
 262 87 l 2,18,19
 409 87 409 87 509 201 c 1,20,21
 604 311 604 311 604 461 c 0,11,12
EndSplineSet
EndChar

StartChar: E
Encoding: 69 69 40
Width: 602
Flags: W
LayerCount: 2
Fore
SplineSet
652 722 m 1,0,-1
 628 635 l 1,1,-1
 282 635 l 1,2,-1
 223 413 l 1,3,-1
 559 413 l 1,4,-1
 536 326 l 1,5,-1
 200 326 l 1,6,-1
 136 87 l 1,7,-1
 492 87 l 1,8,-1
 468 0 l 1,9,-1
 11 0 l 1,10,-1
 205 722 l 1,11,-1
 652 722 l 1,0,-1
EndSplineSet
EndChar

StartChar: F
Encoding: 70 70 41
Width: 563
Flags: W
LayerCount: 2
Fore
SplineSet
625 722 m 1,0,-1
 601 635 l 1,1,-1
 282 635 l 1,2,-1
 223 413 l 1,3,-1
 522 413 l 1,4,-1
 499 326 l 1,5,-1
 200 326 l 1,6,-1
 112 0 l 1,7,-1
 11 0 l 1,8,-1
 205 722 l 1,9,-1
 625 722 l 1,0,-1
EndSplineSet
EndChar

StartChar: G
Encoding: 71 71 42
Width: 771
Flags: W
LayerCount: 2
Fore
SplineSet
775 574 m 0,0,1
 775 557 775 557 771 542 c 1,2,-1
 670 542 l 1,3,4
 671 546 671 546 671 555 c 0,5,6
 671 600 671 600 621 627 c 0,7,8
 580 649 580 649 532 649 c 0,9,10
 372 649 372 649 277 530 c 0,11,12
 188 420 188 420 188 256 c 0,13,14
 188 74 188 74 366 74 c 0,15,16
 467 74 467 74 547 98 c 1,17,-1
 600 298 l 1,18,-1
 436 298 l 1,19,-1
 459 385 l 1,20,-1
 724 385 l 1,21,-1
 631 36 l 1,22,23
 482 -14 482 -14 354 -14 c 0,24,25
 79 -14 79 -14 79 222 c 0,26,27
 79 430 79 430 207 579 c 0,28,29
 342 736 342 736 547 736 c 0,30,31
 635 736 635 736 698 700 c 0,32,33
 775 656 775 656 775 574 c 0,0,1
EndSplineSet
EndChar

StartChar: H
Encoding: 72 72 43
Width: 704
Flags: W
LayerCount: 2
Fore
SplineSet
754 722 m 1,0,-1
 560 0 l 1,1,-1
 459 0 l 1,2,-1
 547 326 l 1,3,-1
 200 326 l 1,4,-1
 112 0 l 1,5,-1
 11 0 l 1,6,-1
 205 722 l 1,7,-1
 306 722 l 1,8,-1
 223 413 l 1,9,-1
 570 413 l 1,10,-1
 653 722 l 1,11,-1
 754 722 l 1,0,-1
EndSplineSet
EndChar

StartChar: I
Encoding: 73 73 44
Width: 256
Flags: W
LayerCount: 2
Fore
SplineSet
306 722 m 1,0,-1
 112 0 l 1,1,-1
 11 0 l 1,2,-1
 205 722 l 1,3,-1
 306 722 l 1,0,-1
EndSplineSet
EndChar

StartChar: J
Encoding: 74 74 45
Width: 568
Flags: W
LayerCount: 2
Fore
SplineSet
618 722 m 1,0,-1
 482 215 l 2,1,2
 455 116 455 116 378 51 c 128,-1,3
 301 -14 301 -14 200 -14 c 0,4,5
 128 -14 128 -14 85 23 c 0,6,7
 39 62 39 62 39 132 c 0,8,9
 39 164 39 164 47 194 c 1,10,-1
 145 194 l 1,11,12
 139 170 139 170 139 150 c 0,13,14
 139 74 139 74 228 74 c 0,15,16
 284 74 284 74 327 118 c 0,17,18
 365 157 365 157 381 215 c 2,19,-1
 517 722 l 1,20,-1
 618 722 l 1,0,-1
EndSplineSet
EndChar

StartChar: K
Encoding: 75 75 46
Width: 657
Flags: W
LayerCount: 2
Fore
SplineSet
728 722 m 1,0,-1
 337 411 l 1,1,-1
 571 0 l 1,2,-1
 436 0 l 1,3,-1
 214 381 l 1,4,-1
 112 0 l 1,5,-1
 11 0 l 1,6,-1
 205 722 l 1,7,-1
 306 722 l 1,8,-1
 224 415 l 1,9,-1
 604 722 l 1,10,-1
 728 722 l 1,0,-1
EndSplineSet
EndChar

StartChar: L
Encoding: 76 76 47
Width: 542
Flags: W
LayerCount: 2
Fore
SplineSet
455 87 m 1,0,-1
 431 0 l 1,1,-1
 11 0 l 1,2,-1
 205 722 l 1,3,-1
 306 722 l 1,4,-1
 136 87 l 1,5,-1
 455 87 l 1,0,-1
EndSplineSet
EndChar

StartChar: M
Encoding: 77 77 48
Width: 893
Flags: W
LayerCount: 2
Fore
SplineSet
943 722 m 1,0,-1
 749 0 l 1,1,-1
 648 0 l 1,2,-1
 816 627 l 1,3,-1
 419 0 l 1,4,-1
 339 0 l 1,5,-1
 279 622 l 1,6,-1
 112 0 l 1,7,-1
 11 0 l 1,8,-1
 205 722 l 1,9,-1
 364 722 l 1,10,-1
 417 140 l 1,11,-1
 784 722 l 1,12,-1
 943 722 l 1,0,-1
EndSplineSet
EndChar

StartChar: N
Encoding: 78 78 49
Width: 718
Flags: W
LayerCount: 2
Fore
SplineSet
768 722 m 1,0,-1
 574 0 l 1,1,-1
 430 0 l 1,2,-1
 271 592 l 1,3,-1
 112 0 l 1,4,-1
 11 0 l 1,5,-1
 205 722 l 1,6,-1
 348 722 l 1,7,-1
 508 130 l 1,8,-1
 667 722 l 1,9,-1
 768 722 l 1,0,-1
EndSplineSet
EndChar

StartChar: O
Encoding: 79 79 50
Width: 785
Flags: W
LayerCount: 2
Fore
SplineSet
774 505 m 0,0,1
 774 312 774 312 648 154 c 0,2,3
 513 -14 513 -14 325 -14 c 0,4,5
 207 -14 207 -14 144 52.5 c 128,-1,6
 81 119 81 119 81 237 c 0,7,8
 81 436 81 436 203 582 c 0,9,10
 331 736 331 736 526 736 c 0,11,12
 642 736 642 736 708 678 c 128,-1,13
 774 620 774 620 774 505 c 0,0,1
671 496 m 0,14,15
 671 649 671 649 502 649 c 0,16,17
 277 649 277 649 204 375 c 0,18,19
 184 300 184 300 184 243 c 0,20,21
 184 74 184 74 348 74 c 0,22,23
 492 74 492 74 587 217 c 0,24,25
 671 344 671 344 671 496 c 0,14,15
EndSplineSet
EndChar

StartChar: P
Encoding: 80 80 51
Width: 622
Flags: W
LayerCount: 2
Fore
SplineSet
642 583 m 0,0,1
 642 551 642 551 632 514 c 0,2,3
 604 411 604 411 533 362 c 0,4,5
 475 321 475 321 377 311 c 0,6,7
 333 306 333 306 194 306 c 1,8,-1
 112 0 l 1,9,-1
 11 0 l 1,10,-1
 205 722 l 1,11,-1
 409 722 l 2,12,13
 510 722 510 722 562 701 c 0,14,15
 642 668 642 668 642 583 c 0,0,1
541 554 m 0,16,17
 541 635 541 635 388 635 c 2,18,-1
 282 635 l 1,19,-1
 218 394 l 1,20,-1
 324 394 l 2,21,22
 541 394 541 394 541 554 c 0,16,17
EndSplineSet
EndChar

StartChar: Q
Encoding: 81 81 52
Width: 798
Flags: W
LayerCount: 2
Fore
SplineSet
774 505 m 256,0,1
 774 390 774 390 715 265 c 1,2,3
 655 135 655 135 565 69 c 1,4,-1
 714 69 l 1,5,-1
 695 0 l 1,6,-1
 424 0 l 2,7,8
 409 0 409 0 375.5 -7 c 128,-1,9
 342 -14 342 -14 325 -14 c 0,10,11
 207 -14 207 -14 144 52.5 c 128,-1,12
 81 119 81 119 81 237 c 0,13,14
 81 436 81 436 203 582 c 0,15,16
 331 736 331 736 526 736 c 0,17,18
 643 736 643 736 708.5 678 c 128,-1,19
 774 620 774 620 774 505 c 256,0,1
671 496 m 0,20,21
 671 649 671 649 502 649 c 0,22,23
 277 649 277 649 204 375 c 0,24,25
 184 300 184 300 184 243 c 0,26,27
 184 74 184 74 348 74 c 0,28,29
 492 74 492 74 587 217 c 0,30,31
 671 344 671 344 671 496 c 0,20,21
EndSplineSet
EndChar

StartChar: R
Encoding: 82 82 53
Width: 627
Flags: W
LayerCount: 2
Fore
SplineSet
651 592 m 0,0,1
 651 507 651 507 596 451 c 1,2,3
 554 406 554 406 464 369 c 1,4,5
 498 365 498 365 518 337 c 128,-1,6
 538 309 538 309 538 274 c 0,7,8
 538 234 538 234 527.5 155 c 128,-1,9
 517 76 517 76 517 35 c 0,10,11
 517 17 517 17 518 0 c 1,12,-1
 416 0 l 1,13,14
 417 28 417 28 425 113 c 0,15,16
 432 183 432 183 432 226 c 0,17,18
 432 301 432 301 396 318 c 0,19,20
 376 328 376 328 288 328 c 2,21,-1
 200 328 l 1,22,-1
 112 0 l 1,23,-1
 11 0 l 1,24,-1
 205 722 l 1,25,-1
 434 722 l 2,26,27
 651 722 651 722 651 592 c 0,0,1
545 559 m 0,28,29
 545 635 545 635 407 635 c 2,30,-1
 282 635 l 1,31,-1
 224 415 l 1,32,-1
 349 415 l 2,33,34
 431 415 431 415 482 445 c 0,35,36
 545 482 545 482 545 559 c 0,28,29
EndSplineSet
EndChar

StartChar: S
Encoding: 83 83 54
Width: 667
Flags: W
LayerCount: 2
Fore
SplineSet
661 595 m 0,0,1
 661 570 661 570 653 540 c 1,2,-1
 552 540 l 1,3,4
 557 558 557 558 557 575 c 0,5,6
 557 649 557 649 419 649 c 0,7,8
 350 649 350 649 301 615 c 0,9,10
 246 576 246 576 246 509 c 0,11,12
 246 454 246 454 338 430 c 0,13,14
 423 407 423 407 508 385 c 1,15,16
 600 348 600 348 600 262 c 0,17,18
 600 125 600 125 478 49 c 0,19,20
 376 -14 376 -14 231 -14 c 0,21,22
 149 -14 149 -14 99 26 c 1,23,24
 43 69 43 69 43 148 c 0,25,26
 43 178 43 178 53 215 c 1,27,-1
 155 215 l 1,28,29
 149 193 149 193 149 175 c 0,30,31
 149 129 149 129 177 101.5 c 128,-1,32
 205 74 205 74 251 74 c 0,33,34
 493 74 493 74 493 230 c 0,35,36
 493 294 493 294 401 318 c 1,37,38
 317 337 317 337 232 356 c 1,39,40
 140 389 140 389 140 474 c 0,41,42
 140 587 140 587 240 665 c 0,43,44
 332 736 332 736 449 736 c 0,45,46
 535 736 535 736 590 708 c 0,47,48
 661 672 661 672 661 595 c 0,0,1
EndSplineSet
EndChar

StartChar: T
Encoding: 84 84 55
Width: 616
Flags: W
LayerCount: 2
Fore
SplineSet
735 722 m 1,0,-1
 711 635 l 1,1,-1
 475 635 l 1,2,-1
 305 0 l 1,3,-1
 204 0 l 1,4,-1
 374 635 l 1,5,-1
 138 635 l 1,6,-1
 162 722 l 1,7,-1
 735 722 l 1,0,-1
EndSplineSet
EndChar

StartChar: U
Encoding: 85 85 56
Width: 741
Flags: W
LayerCount: 2
Fore
SplineSet
791 722 m 1,0,-1
 684 322 l 2,1,2
 639 154 639 154 559 76 c 0,3,4
 468 -14 468 -14 305 -14 c 0,5,6
 199 -14 199 -14 146 22 c 0,7,8
 82 65 82 65 82 166 c 0,9,10
 82 229 82 229 107 322 c 2,11,-1
 214 722 l 1,12,-1
 315 722 l 1,13,-1
 208 322 l 2,14,15
 188 247 188 247 188 198 c 0,16,17
 188 129 188 129 225 100 c 0,18,19
 258 74 258 74 328 74 c 0,20,21
 438 74 438 74 501 145 c 0,22,23
 551 201 551 201 583 322 c 2,24,-1
 690 722 l 1,25,-1
 791 722 l 1,0,-1
EndSplineSet
EndChar

StartChar: V
Encoding: 86 86 57
Width: 658
Flags: W
LayerCount: 2
Fore
SplineSet
783 722 m 1,0,-1
 332 0 l 1,1,-1
 222 0 l 1,2,-1
 159 722 l 1,3,-1
 272 722 l 1,4,-1
 312 130 l 1,5,-1
 670 722 l 1,6,-1
 783 722 l 1,0,-1
EndSplineSet
EndChar

StartChar: W
Encoding: 87 87 58
Width: 976
Flags: W
LayerCount: 2
Fore
SplineSet
1101 722 m 1,0,-1
 693 0 l 1,1,-1
 603 0 l 1,2,-1
 598 602 l 1,3,-1
 269 0 l 1,4,-1
 179 0 l 1,5,-1
 159 722 l 1,6,-1
 265 722 l 1,7,-1
 265 150 l 1,8,-1
 570 722 l 1,9,-1
 690 722 l 1,10,-1
 689 150 l 1,11,-1
 995 722 l 1,12,-1
 1101 722 l 1,0,-1
EndSplineSet
EndChar

StartChar: X
Encoding: 88 88 59
Width: 689
Flags: W
LayerCount: 2
Fore
SplineSet
762 722 m 1,0,-1
 440 385 l 1,1,-1
 603 0 l 1,2,-1
 475 0 l 1,3,-1
 353 314 l 1,4,-1
 67 0 l 1,5,-1
 -51 0 l 1,6,-1
 317 385 l 1,7,-1
 177 722 l 1,8,-1
 305 722 l 1,9,-1
 406 456 l 1,10,-1
 644 722 l 1,11,-1
 762 722 l 1,0,-1
EndSplineSet
EndChar

StartChar: Y
Encoding: 89 89 60
Width: 670
Flags: W
LayerCount: 2
Fore
SplineSet
795 722 m 1,0,-1
 410 287 l 1,1,-1
 333 0 l 1,2,-1
 232 0 l 1,3,-1
 309 287 l 1,4,-1
 159 722 l 1,5,-1
 282 722 l 1,6,-1
 390 375 l 1,7,-1
 681 722 l 1,8,-1
 795 722 l 1,0,-1
EndSplineSet
EndChar

StartChar: Z
Encoding: 90 90 61
Width: 603
Flags: W
LayerCount: 2
Fore
SplineSet
682 722 m 1,0,-1
 652 612 l 1,1,-1
 106 87 l 1,2,-1
 522 87 l 1,3,-1
 498 0 l 1,4,-1
 -28 0 l 1,5,-1
 2 110 l 1,6,-1
 548 635 l 1,7,-1
 162 635 l 1,8,-1
 186 722 l 1,9,-1
 682 722 l 1,0,-1
EndSplineSet
EndChar

StartChar: bracketleft
Encoding: 91 91 62
Width: 393
Flags: W
LayerCount: 2
Fore
SplineSet
414 722 m 1,0,-1
 400 671 l 1,1,-1
 300 671 l 1,2,-1
 81 -147 l 1,3,-1
 181 -147 l 1,4,-1
 167 -198 l 1,5,-1
 -19 -198 l 1,6,-1
 228 722 l 1,7,-1
 414 722 l 1,0,-1
EndSplineSet
EndChar

StartChar: backslash
Encoding: 92 92 63
Width: 409
Flags: W
LayerCount: 2
Fore
SplineSet
357 -52 m 1,0,-1
 288 -52 l 1,1,-1
 52 736 l 1,2,-1
 121 736 l 1,3,-1
 357 -52 l 1,0,-1
EndSplineSet
EndChar

StartChar: bracketright
Encoding: 93 93 64
Width: 393
Flags: W
LayerCount: 2
Fore
SplineSet
414 722 m 1,0,-1
 167 -198 l 1,1,-1
 -19 -198 l 1,2,-1
 -5 -147 l 1,3,-1
 94 -147 l 1,4,-1
 313 671 l 1,5,-1
 214 671 l 1,6,-1
 228 722 l 1,7,-1
 414 722 l 1,0,-1
EndSplineSet
EndChar

StartChar: asciicircum
Encoding: 94 94 65
Width: 490
Flags: W
LayerCount: 2
Fore
SplineSet
433 415 m 1,0,-1
 388 415 l 1,1,-1
 245 737 l 1,2,-1
 102 415 l 1,3,-1
 57 415 l 1,4,-1
 223 775 l 1,5,-1
 267 775 l 1,6,-1
 433 415 l 1,0,-1
EndSplineSet
EndChar

StartChar: underscore
Encoding: 95 95 66
Width: 554
Flags: W
LayerCount: 2
Fore
SplineSet
385 -288 m 1,0,-1
 365 -365 l 1,1,-1
 -192 -365 l 1,2,-1
 -172 -288 l 1,3,-1
 385 -288 l 1,0,-1
EndSplineSet
EndChar

StartChar: grave
Encoding: 96 96 67
Width: 241
Flags: W
LayerCount: 2
Fore
SplineSet
283 600 m 1,0,-1
 222 600 l 1,1,-1
 128 771 l 1,2,-1
 229 771 l 1,3,-1
 283 600 l 1,0,-1
EndSplineSet
EndChar

StartChar: a
Encoding: 97 97 68
Width: 558
Flags: W
LayerCount: 2
Fore
SplineSet
516 421 m 0,0,1
 516 364 516 364 467 208 c 0,2,3
 420 59 420 59 425 0 c 1,4,-1
 335 0 l 1,5,6
 338 45 338 45 344 73 c 1,7,8
 295 28 295 28 265 11 c 0,9,10
 221 -13 221 -13 168 -13 c 0,11,12
 109 -13 109 -13 64 13 c 1,13,14
 11 45 11 45 11 100 c 0,15,16
 11 113 11 113 16 132 c 0,17,18
 48 251 48 251 172 291 c 0,19,20
 248 315 248 315 404 314 c 1,21,22
 421 350 421 350 421 378 c 0,23,24
 421 446 421 446 332 446 c 0,25,26
 285 446 285 446 250 428 c 0,27,28
 209 406 209 406 198 365 c 1,29,-1
 105 365 l 1,30,31
 145 513 145 513 346 513 c 0,32,33
 516 513 516 513 516 421 c 0,0,1
385 246 m 1,34,35
 347 249 347 249 334 249 c 0,36,37
 254 249 254 249 191 223 c 0,38,39
 108 188 108 188 108 119 c 0,40,41
 108 88 108 88 131 71 c 128,-1,42
 154 54 154 54 187 54 c 0,43,44
 272 54 272 54 322 110 c 0,45,46
 360 154 360 154 385 246 c 1,34,35
EndSplineSet
EndChar

StartChar: b
Encoding: 98 98 69
Width: 595
Flags: W
LayerCount: 2
Fore
SplineSet
553 348 m 0,0,1
 553 229 553 229 466 112 c 0,2,3
 372 -13 372 -13 256 -13 c 0,4,5
 213 -13 213 -13 172 5 c 0,6,7
 127 25 127 25 106 59 c 1,8,-1
 90 0 l 1,9,-1
 0 0 l 1,10,-1
 194 722 l 1,11,-1
 281 722 l 1,12,-1
 203 431 l 1,13,14
 279 513 279 513 394 513 c 0,15,16
 472 513 472 513 512.5 469.5 c 128,-1,17
 553 426 553 426 553 348 c 0,0,1
457 344 m 0,18,19
 457 455 457 455 356 455 c 0,20,21
 261 455 261 455 198 353 c 0,22,23
 143 265 143 265 143 164 c 0,24,25
 143 54 143 54 246 54 c 0,26,27
 335 54 335 54 400 158 c 0,28,29
 457 250 457 250 457 344 c 0,18,19
EndSplineSet
EndChar

StartChar: c
Encoding: 99 99 70
Width: 528
Flags: W
LayerCount: 2
Fore
SplineSet
505 404 m 0,0,1
 505 377 505 377 492 343 c 1,2,-1
 403 343 l 1,3,4
 413 365 413 365 413 383 c 0,5,6
 413 445 413 445 309 445 c 0,7,8
 226 445 226 445 171 335 c 0,9,10
 125 243 125 243 125 151 c 0,11,12
 125 55 125 55 221 55 c 0,13,14
 271 55 271 55 310 87 c 128,-1,15
 349 119 349 119 362 169 c 1,16,-1
 451 169 l 1,17,18
 427 81 427 81 361 34 c 128,-1,19
 295 -13 295 -13 202 -13 c 0,20,21
 34 -13 34 -13 34 137 c 0,22,23
 34 187 34 187 51 250 c 0,24,25
 84 374 84 374 144 437 c 0,26,27
 216 513 216 513 334 513 c 0,28,29
 505 513 505 513 505 404 c 0,0,1
EndSplineSet
EndChar

StartChar: d
Encoding: 100 100 71
Width: 588
Flags: W
LayerCount: 2
Fore
SplineSet
650 722 m 1,0,-1
 456 0 l 1,1,-1
 366 0 l 1,2,-1
 382 57 l 1,3,4
 302 -13 302 -13 214 -13 c 0,5,6
 137 -13 137 -13 88 42 c 1,7,8
 40 94 40 94 40 172 c 0,9,10
 40 291 40 291 125 398 c 0,11,12
 215 513 215 513 330 513 c 0,13,14
 378 513 378 513 420 496 c 0,15,16
 473 475 473 475 483 435 c 1,17,-1
 560 722 l 1,18,-1
 650 722 l 1,0,-1
439 317 m 0,19,20
 439 373 439 373 414 410 c 0,21,22
 385 453 385 453 331 453 c 0,23,24
 249 453 249 453 189 356 c 0,25,26
 135 270 135 270 135 183 c 0,27,28
 135 130 135 130 159 97 c 0,29,30
 186 59 186 59 237 59 c 0,31,32
 323 59 323 59 384 148 c 0,33,34
 439 227 439 227 439 317 c 0,19,20
EndSplineSet
EndChar

StartChar: e
Encoding: 101 101 72
Width: 566
Flags: W
LayerCount: 2
Fore
SplineSet
530 364 m 0,0,1
 530 299 530 299 503 236 c 1,2,-1
 146 236 l 1,3,4
 133 188 133 188 133 155 c 0,5,6
 133 52 133 52 229 52 c 0,7,8
 282 52 282 52 324 81 c 128,-1,9
 366 110 366 110 385 159 c 1,10,-1
 482 159 l 1,11,12
 444 77 444 77 373 32 c 128,-1,13
 302 -13 302 -13 211 -13 c 0,14,15
 128 -13 128 -13 84 33.5 c 128,-1,16
 40 80 40 80 40 163 c 0,17,18
 40 300 40 300 130 404 c 0,19,20
 224 513 224 513 358 513 c 0,21,22
 530 513 530 513 530 364 c 0,0,1
437 366 m 0,23,24
 437 449 437 449 337 449 c 0,25,26
 223 449 223 449 163 301 c 1,27,-1
 423 301 l 1,28,29
 437 337 437 337 437 366 c 0,23,24
EndSplineSet
EndChar

StartChar: f
Encoding: 102 102 73
Width: 318
Flags: W
LayerCount: 2
Fore
SplineSet
460 722 m 1,0,-1
 440 648 l 1,1,2
 420 660 420 660 385 660 c 0,3,4
 328 660 328 660 301 605 c 0,5,6
 294 591 294 591 270 500 c 1,7,-1
 390 500 l 1,8,-1
 373 435 l 1,9,-1
 253 435 l 1,10,-1
 136 0 l 1,11,-1
 46 0 l 1,12,-1
 163 435 l 1,13,-1
 63 435 l 1,14,-1
 80 500 l 1,15,-1
 180 500 l 1,16,17
 215 632 215 632 241 668 c 0,18,19
 287 732 287 732 397 732 c 0,20,21
 432 732 432 732 460 722 c 1,0,-1
EndSplineSet
EndChar

StartChar: g
Encoding: 103 103 74
Width: 589
Flags: W
LayerCount: 2
Fore
SplineSet
583 500 m 1,0,-1
 457 30 l 2,1,2
 429 -76 429 -76 346 -137 c 128,-1,3
 263 -198 263 -198 152 -198 c 0,4,5
 83 -198 83 -198 40 -171 c 0,6,7
 -11 -139 -11 -139 -11 -74 c 0,8,9
 -11 -59 -11 -59 -6 -40 c 1,10,-1
 88 -40 l 1,11,12
 84 -55 84 -55 84 -64 c 0,13,14
 84 -101 84 -101 118 -120 c 0,15,16
 146 -136 146 -136 186 -136 c 0,17,18
 272 -136 272 -136 323 -61 c 0,19,20
 356 -12 356 -12 384 93 c 1,21,22
 297 14 297 14 204 14 c 0,23,24
 36 14 36 14 36 166 c 0,25,26
 36 294 36 294 117 399 c 0,27,28
 205 513 205 513 329 513 c 0,29,30
 392 513 392 513 418 504 c 0,31,32
 459 490 459 490 479 445 c 1,33,-1
 493 500 l 1,34,-1
 583 500 l 1,0,-1
440 341 m 0,35,36
 440 449 440 449 328 449 c 0,37,38
 238 449 238 449 181 360 c 0,39,40
 132 283 132 283 132 187 c 0,41,42
 132 78 132 78 233 78 c 0,43,44
 324 78 324 78 385 166 c 0,45,46
 440 245 440 245 440 341 c 0,35,36
EndSplineSet
EndChar

StartChar: h
Encoding: 104 104 75
Width: 579
Flags: W
LayerCount: 2
Fore
SplineSet
530 399 m 0,0,1
 530 360 530 360 517 311 c 2,2,-1
 433 0 l 1,3,-1
 343 0 l 1,4,-1
 428 315 l 2,5,6
 435 341 435 341 435 364 c 0,7,8
 435 401 435 401 414.5 424.5 c 128,-1,9
 394 448 394 448 358 448 c 0,10,11
 305 448 305 448 253 420 c 0,12,13
 195 389 195 389 182 341 c 2,14,-1
 90 0 l 1,15,-1
 0 0 l 1,16,-1
 194 722 l 1,17,-1
 284 722 l 1,18,-1
 207 437 l 1,19,20
 234 473 234 473 288 494 c 0,21,22
 336 513 336 513 385 513 c 0,23,24
 530 513 530 513 530 399 c 0,0,1
EndSplineSet
EndChar

StartChar: i
Encoding: 105 105 76
Width: 222
Flags: W
LayerCount: 2
Fore
SplineSet
287 722 m 1,0,-1
 262 630 l 1,1,-1
 166 630 l 1,2,-1
 191 722 l 1,3,-1
 287 722 l 1,0,-1
224 500 m 1,4,-1
 90 0 l 1,5,-1
 0 0 l 1,6,-1
 134 500 l 1,7,-1
 224 500 l 1,4,-1
EndSplineSet
EndChar

StartChar: j
Encoding: 106 106 77
Width: 258
Flags: W
LayerCount: 2
Fore
SplineSet
323 722 m 1,0,-1
 298 630 l 1,1,-1
 202 630 l 1,2,-1
 227 722 l 1,3,-1
 323 722 l 1,0,-1
260 500 m 1,4,-1
 105 -80 l 2,5,6
 70 -211 70 -211 -46 -211 c 0,7,8
 -124 -211 -124 -211 -163 -158 c 1,9,-1
 -91 -101 l 1,10,11
 -74 -132 -74 -132 -39 -132 c 0,12,13
 1 -132 1 -132 23 -50 c 2,14,-1
 170 500 l 1,15,-1
 260 500 l 1,4,-1
EndSplineSet
EndChar

StartChar: k
Encoding: 107 107 78
Width: 495
Flags: W
LayerCount: 2
Fore
SplineSet
527 500 m 1,0,-1
 269 282 l 1,1,-1
 409 0 l 1,2,-1
 290 0 l 1,3,-1
 162 267 l 1,4,-1
 90 0 l 1,5,-1
 0 0 l 1,6,-1
 194 722 l 1,7,-1
 284 722 l 1,8,-1
 169 292 l 1,9,-1
 414 500 l 1,10,-1
 527 500 l 1,0,-1
EndSplineSet
EndChar

StartChar: l
Encoding: 108 108 79
Width: 222
Flags: W
LayerCount: 2
Fore
SplineSet
284 722 m 1,0,-1
 90 0 l 1,1,-1
 0 0 l 1,2,-1
 194 722 l 1,3,-1
 284 722 l 1,0,-1
EndSplineSet
EndChar

StartChar: m
Encoding: 109 109 80
Width: 902
Flags: W
LayerCount: 2
Fore
SplineSet
854 398 m 0,0,1
 854 364 854 364 843 323 c 2,2,-1
 756 0 l 1,3,-1
 666 0 l 1,4,-1
 753 323 l 2,5,6
 760 349 760 349 760 372 c 0,7,8
 760 449 760 449 674 449 c 0,9,10
 626 449 626 449 575.5 409.5 c 128,-1,11
 525 370 525 370 512 323 c 2,12,-1
 425 0 l 1,13,-1
 335 0 l 1,14,-1
 422 323 l 2,15,16
 427 342 427 342 427 361 c 0,17,18
 427 400 427 400 405.5 424.5 c 128,-1,19
 384 449 384 449 345 449 c 0,20,21
 295 449 295 449 242.5 410 c 128,-1,22
 190 371 190 371 177 323 c 2,23,-1
 90 0 l 1,24,-1
 0 0 l 1,25,-1
 134 500 l 1,26,-1
 224 500 l 1,27,-1
 206 431 l 1,28,29
 288 513 288 513 377 513 c 0,30,31
 438 513 438 513 469 496 c 0,32,33
 505 477 505 477 523 424 c 1,34,35
 609 513 609 513 709 513 c 0,36,37
 854 513 854 513 854 398 c 0,0,1
EndSplineSet
EndChar

StartChar: n
Encoding: 110 110 81
Width: 580
Flags: W
LayerCount: 2
Fore
SplineSet
533 398 m 0,0,1
 533 370 533 370 522 329 c 2,2,-1
 434 0 l 1,3,-1
 345 0 l 1,4,5
 371 93 371 93 398 186 c 1,6,7
 438 331 438 331 438 362 c 0,8,9
 438 402 438 402 411 427.5 c 128,-1,10
 384 453 384 453 344 453 c 0,11,12
 287 453 287 453 239.5 415.5 c 128,-1,13
 192 378 192 378 177 323 c 2,14,-1
 90 0 l 1,15,-1
 0 0 l 1,16,-1
 134 500 l 1,17,-1
 224 500 l 1,18,-1
 207 436 l 1,19,20
 243 463 243 463 279 491 c 1,21,22
 313 513 313 513 380 513 c 0,23,24
 533 513 533 513 533 398 c 0,0,1
EndSplineSet
EndChar

StartChar: o
Encoding: 111 111 82
Width: 602
Flags: W
LayerCount: 2
Fore
SplineSet
558 341 m 0,0,1
 558 200 558 200 464 95 c 0,2,3
 367 -13 367 -13 228 -13 c 0,4,5
 142 -13 142 -13 92 29 c 1,6,7
 39 75 39 75 39 159 c 0,8,9
 39 301 39 301 133 405 c 0,10,11
 230 513 230 513 369 513 c 0,12,13
 455 513 455 513 505 471 c 1,14,15
 558 425 558 425 558 341 c 0,0,1
460 323 m 0,16,17
 460 449 460 449 352 449 c 0,18,19
 261 449 261 449 195 356 c 0,20,21
 136 272 136 272 136 177 c 0,22,23
 136 121 136 121 162 88 c 0,24,25
 190 52 190 52 245 52 c 0,26,27
 336 52 336 52 401 144 c 0,28,29
 460 228 460 228 460 323 c 0,16,17
EndSplineSet
EndChar

StartChar: p
Encoding: 112 112 83
Width: 597
Flags: W
LayerCount: 2
Fore
SplineSet
555 354 m 0,0,1
 555 208 555 208 470 101 c 0,2,3
 379 -14 379 -14 238 -14 c 0,4,5
 163 -14 163 -14 97 52 c 1,6,-1
 30 -198 l 1,7,-1
 -60 -198 l 1,8,-1
 127 500 l 1,9,-1
 217 500 l 1,10,-1
 200 437 l 1,11,12
 303 513 303 513 379 513 c 0,13,14
 555 513 555 513 555 354 c 0,0,1
455 332 m 0,15,16
 455 449 455 449 350 449 c 0,17,18
 257 449 257 449 193 352 c 0,19,20
 137 266 137 266 137 168 c 0,21,22
 137 51 137 51 243 51 c 0,23,24
 336 51 336 51 399 148 c 0,25,26
 455 233 455 233 455 332 c 0,15,16
EndSplineSet
EndChar

StartChar: q
Encoding: 113 113 84
Width: 603
Flags: W
LayerCount: 2
Fore
SplineSet
597 500 m 1,0,-1
 410 -198 l 1,1,-1
 320 -198 l 1,2,-1
 387 52 l 1,3,4
 286 -14 286 -14 212 -14 c 0,5,6
 36 -14 36 -14 36 146 c 0,7,8
 36 292 36 292 120 399 c 1,9,10
 211 513 211 513 353 513 c 0,11,12
 428 513 428 513 490 437 c 1,13,-1
 507 500 l 1,14,-1
 597 500 l 1,0,-1
453 332 m 0,15,16
 453 449 453 449 348 449 c 0,17,18
 255 449 255 449 191 352 c 0,19,20
 135 266 135 266 135 168 c 0,21,22
 135 51 135 51 241 51 c 0,23,24
 334 51 334 51 397 148 c 0,25,26
 453 233 453 233 453 332 c 0,15,16
EndSplineSet
EndChar

StartChar: r
Encoding: 114 114 85
Width: 357
Flags: W
LayerCount: 2
Fore
SplineSet
407 500 m 1,0,-1
 386 420 l 1,1,2
 203 420 203 420 165 280 c 2,3,-1
 90 0 l 1,4,-1
 0 0 l 1,5,-1
 134 500 l 1,6,-1
 224 500 l 1,7,-1
 206 432 l 1,8,9
 243 476 243 476 297 490 c 0,10,11
 334 500 334 500 407 500 c 1,0,-1
EndSplineSet
EndChar

StartChar: s
Encoding: 115 115 86
Width: 508
Flags: W
LayerCount: 2
Fore
SplineSet
476 416 m 0,0,1
 476 396 476 396 468 366 c 1,2,-1
 376 366 l 1,3,4
 380 381 380 381 380 393 c 0,5,6
 380 449 380 449 300 449 c 0,7,8
 258 449 258 449 222 425 c 0,9,10
 183 398 183 398 183 357 c 0,11,12
 183 319 183 319 247 302 c 0,13,14
 306 286 306 286 366 271 c 1,15,16
 430 245 430 245 430 187 c 0,17,18
 430 89 430 89 341 34 c 0,19,20
 266 -13 266 -13 163 -13 c 0,21,22
 13 -13 13 -13 13 95 c 0,23,24
 13 119 13 119 20 145 c 1,25,-1
 112 145 l 1,26,27
 108 129 108 129 108 114 c 0,28,29
 108 52 108 52 191 52 c 0,30,31
 241 52 241 52 283 79 c 0,32,33
 332 110 332 110 332 157 c 0,34,35
 332 194 332 194 268 210 c 0,36,37
 210 225 210 225 151 240 c 1,38,39
 87 266 87 266 87 328 c 0,40,41
 87 418 87 418 160 469 c 1,42,43
 225 513 225 513 319 513 c 0,44,45
 476 513 476 513 476 416 c 0,0,1
EndSplineSet
EndChar

StartChar: t
Encoding: 116 116 87
Width: 356
Flags: W
LayerCount: 2
Fore
SplineSet
395 500 m 1,0,-1
 378 436 l 1,1,-1
 268 436 l 1,2,-1
 186 131 l 2,3,4
 180 109 180 109 180 92 c 0,5,6
 180 56 180 56 216 56 c 0,7,8
 247 56 247 56 278 64 c 1,9,-1
 261 0 l 1,10,11
 221 -13 221 -13 172 -13 c 0,12,13
 85 -13 85 -13 85 61 c 0,14,15
 85 90 85 90 96 131 c 2,16,-1
 178 436 l 1,17,-1
 88 436 l 1,18,-1
 105 500 l 1,19,-1
 195 500 l 1,20,-1
 222 599 l 1,21,-1
 322 636 l 1,22,-1
 285 500 l 1,23,-1
 395 500 l 1,0,-1
EndSplineSet
EndChar

StartChar: u
Encoding: 117 117 88
Width: 578
Flags: W
LayerCount: 2
Fore
SplineSet
572 500 m 1,0,-1
 438 0 l 1,1,-1
 348 0 l 1,2,-1
 365 64 l 1,3,4
 295 -13 295 -13 193 -13 c 0,5,6
 41 -13 41 -13 41 102 c 0,7,8
 41 134 41 134 51 171 c 2,9,-1
 139 500 l 1,10,-1
 229 500 l 1,11,12
 203 407 203 407 176 314 c 1,13,14
 136 169 136 169 136 138 c 0,15,16
 136 98 136 98 162.5 73 c 128,-1,17
 189 48 189 48 229 48 c 0,18,19
 286 48 286 48 333.5 85.5 c 128,-1,20
 381 123 381 123 396 178 c 2,21,-1
 482 500 l 1,22,-1
 572 500 l 1,0,-1
EndSplineSet
EndChar

StartChar: v
Encoding: 118 118 89
Width: 539
Flags: W
LayerCount: 2
Fore
SplineSet
595 500 m 1,0,-1
 255 0 l 1,1,-1
 163 0 l 1,2,-1
 90 500 l 1,3,-1
 195 500 l 1,4,-1
 244 110 l 1,5,-1
 500 500 l 1,6,-1
 595 500 l 1,0,-1
EndSplineSet
EndChar

StartChar: w
Encoding: 119 119 90
Width: 818
Flags: W
LayerCount: 2
Fore
SplineSet
874 500 m 1,0,-1
 571 0 l 1,1,-1
 481 0 l 1,2,-1
 460 415 l 1,3,-1
 215 0 l 1,4,-1
 125 0 l 1,5,-1
 90 500 l 1,6,-1
 186 500 l 1,7,-1
 200 110 l 1,8,-1
 422 500 l 1,9,-1
 542 500 l 1,10,-1
 556 110 l 1,11,-1
 778 500 l 1,12,-1
 874 500 l 1,0,-1
EndSplineSet
EndChar

StartChar: x
Encoding: 120 120 91
Width: 536
Flags: W
LayerCount: 2
Fore
SplineSet
571 500 m 1,0,-1
 321 259 l 1,1,-1
 450 0 l 1,2,-1
 336 0 l 1,3,-1
 243 197 l 1,4,-1
 48 0 l 1,5,-1
 -57 0 l 1,6,-1
 212 259 l 1,7,-1
 92 500 l 1,8,-1
 206 500 l 1,9,-1
 290 321 l 1,10,-1
 466 500 l 1,11,-1
 571 500 l 1,0,-1
EndSplineSet
EndChar

StartChar: y
Encoding: 121 121 92
Width: 517
Flags: W
LayerCount: 2
Fore
SplineSet
573 500 m 1,0,-1
 171 -111 l 2,1,2
 110 -204 110 -204 24 -204 c 0,3,4
 -67 -204 -67 -204 -85 -113 c 1,5,-1
 -4 -76 l 1,6,7
 -1 -95 -1 -95 12 -110 c 128,-1,8
 25 -125 25 -125 44 -125 c 0,9,10
 66 -125 66 -125 103 -71 c 1,11,12
 126 -35 126 -35 148 0 c 1,13,-1
 68 500 l 1,14,-1
 173 500 l 1,15,-1
 229 123 l 1,16,-1
 476 500 l 1,17,-1
 573 500 l 1,0,-1
EndSplineSet
EndChar

StartChar: z
Encoding: 122 122 93
Width: 463
Flags: W
LayerCount: 2
Fore
SplineSet
479 500 m 1,0,-1
 457 417 l 1,1,-1
 96 70 l 1,2,-1
 364 70 l 1,3,-1
 345 0 l 1,4,-1
 -23 0 l 1,5,-1
 0 83 l 1,6,-1
 359 430 l 1,7,-1
 113 430 l 1,8,-1
 131 500 l 1,9,-1
 479 500 l 1,0,-1
EndSplineSet
EndChar

StartChar: braceleft
Encoding: 123 123 94
Width: 490
Flags: W
LayerCount: 2
Fore
SplineSet
552 760 m 1,0,-1
 532 686 l 1,1,2
 460 686 460 686 423 648 c 0,3,4
 396 619 396 619 379 555 c 0,5,6
 350 448 350 448 349 444 c 0,7,8
 324 376 324 376 297.5 339.5 c 128,-1,9
 271 303 271 303 215 259 c 1,10,11
 258 203 258 203 258 146 c 0,12,13
 258 102 258 102 234 22 c 128,-1,14
 210 -58 210 -58 210 -96 c 0,15,16
 210 -166 210 -166 304 -166 c 1,17,-1
 284 -240 l 1,18,19
 202 -240 202 -240 169 -224 c 0,20,21
 119 -199 119 -199 119 -127 c 0,22,23
 119 -84 119 -84 142.5 -1 c 128,-1,24
 166 82 166 82 166 125 c 0,25,26
 166 205 166 205 80 223 c 1,27,-1
 100 296 l 1,28,29
 215 321 215 321 259 444 c 1,30,31
 293 549 293 549 328 654 c 1,32,33
 389 760 389 760 552 760 c 1,0,-1
EndSplineSet
EndChar

StartChar: bar
Encoding: 124 124 95
Width: 389
Flags: W
LayerCount: 2
Fore
SplineSet
220 -258 m 1,0,-1
 169 -258 l 1,1,-1
 169 796 l 1,2,-1
 220 796 l 1,3,-1
 220 -258 l 1,0,-1
EndSplineSet
EndChar

StartChar: braceright
Encoding: 125 125 96
Width: 490
Flags: W
LayerCount: 2
Fore
SplineSet
410 297 m 1,0,-1
 390 224 l 1,1,2
 275 199 275 199 231 76 c 1,3,4
 197 -29 197 -29 162 -134 c 1,5,6
 101 -240 101 -240 -62 -240 c 1,7,-1
 -42 -166 l 1,8,9
 30 -166 30 -166 67 -128 c 0,10,11
 94 -99 94 -99 111 -35 c 0,12,13
 140 72 140 72 141 76 c 0,14,15
 166 144 166 144 192.5 180.5 c 128,-1,16
 219 217 219 217 275 261 c 1,17,18
 232 317 232 317 232 374 c 0,19,20
 232 418 232 418 256 498 c 128,-1,21
 280 578 280 578 280 616 c 0,22,23
 280 686 280 686 186 686 c 1,24,-1
 206 760 l 1,25,26
 288 760 288 760 321 744 c 0,27,28
 371 719 371 719 371 647 c 0,29,30
 371 604 371 604 347.5 521 c 128,-1,31
 324 438 324 438 324 395 c 0,32,33
 324 315 324 315 410 297 c 1,0,-1
EndSplineSet
EndChar

StartChar: quotedblright
Encoding: 8221 8221 101
Width: 534
Flags: W
LayerCount: 2
Fore
SplineSet
534 315 m 1,0,1
 526 271 526 271 475 234.5 c 128,-1,2
 424 198 424 198 378 198 c 0,3,4
 333 198 333 198 262.5 218 c 128,-1,5
 192 238 192 238 166 238 c 0,6,7
 124 238 124 238 91 195 c 1,8,-1
 0 195 l 1,9,10
 8 238 8 238 58.5 275.5 c 128,-1,11
 109 313 109 313 154 313 c 0,12,13
 200 313 200 313 271 293 c 128,-1,14
 342 273 342 273 368 273 c 0,15,16
 410 273 410 273 443 315 c 1,17,-1
 534 315 l 1,0,1
EndSplineSet
EndChar

StartChar: u0B15.sub
Encoding: 65619 -1 267
Width: 687
Flags: W
LayerCount: 2
Fore
SplineSet
-219 -40 m 1,0,1
 -198 -47 -198 -47 -186 -61 c 1,2,3
 -158 -38 -158 -38 -114 -38 c 0,4,5
 -78 -38 -78 -38 -58.5 -54.5 c 128,-1,6
 -39 -71 -39 -71 -39 -100 c 1,7,-1
 -41 -125 l 1,8,-1
 -81 -318 l 1,9,-1
 -139 -318 l 1,10,-1
 -99 -125 l 1,11,12
 -97 -109 -97 -109 -102 -104 c 1,13,14
 -106 -97 -106 -97 -124 -96 c 1,15,16
 -156 -96 -156 -96 -161 -126 c 1,17,-1
 -201 -316 l 1,18,-1
 -259 -316 l 1,19,-1
 -250 -267 l 1,20,21
 -275 -278 -275 -278 -297 -278 c 0,22,23
 -334 -278 -334 -278 -353.5 -254.5 c 128,-1,24
 -373 -231 -373 -231 -373 -192 c 1,25,-1
 -369 -153 l 1,26,27
 -348 -68 -348 -68 -274 -42 c 0,28,29
 -263 -38 -263 -38 -249 -38 c 128,-1,30
 -235 -38 -235 -38 -227 -40 c 1,31,-1
 -219 -40 l 1,0,1
-228 -159 m 1,32,-1
 -226 -131 l 1,33,34
 -226 -96 -226 -96 -254 -96 c 0,35,36
 -277 -96 -277 -96 -292 -111 c 1,37,38
 -304 -129 -304 -129 -309 -148 c 1,39,-1
 -313 -180 l 1,40,41
 -313 -219 -313 -219 -283 -219 c 0,42,43
 -262 -219 -262 -219 -250 -203 c 0,44,45
 -236 -185 -236 -185 -228 -159 c 1,32,-1
EndSplineSet
Ligature2: "'blwf' Below Base Forms in Oriya lookup 3 subtable" u0B15 u0B4D

EndChar

StartChar: unknown1
Encoding: 65649 -1 302
Width: 700
Flags: W
LayerCount: 2
Fore
SplineSet
43 0 m 1,0,-1
 43 1373 l 1,1,-1
 656 1373 l 1,2,-1
 656 0 l 1,3,-1
 43 0 l 1,0,-1
613 43 m 1,4,-1
 613 1329 l 1,5,-1
 87 1329 l 1,6,-1
 87 43 l 1,7,-1
 613 43 l 1,4,-1
EndSplineSet
EndChars
EndSplineFont
EndChar
